PathFileType	4	(X/Y/Z)	C:/Users/opensim2020/Desktop/walking_exp_matlab/subject01_walking08_straight_02.trc																																																																																																																															
DataRate	CameraRate	NumFrames	NumMarkers	Units	OrigDataRate	OrigDataStartFrame	OrigNumFrames																																																																																																																											
100	100	4	43	mm	100	1845	311																																																																																																																											
Frame#	Time	LFHD			RFHD			LBHD			RBHD			C7			T10			CLAV			STRN			RBAK			LSHO			LUPA			LELB			LFRM			LWRA			LWRB			LFIN			RSHO			RUPA			RELB			RFRM			RWRA			RWRB			RFIN			LASI			RASI			LPSI			RPSI			LTHI			LKNE			LTIB			LANK			LHEE			LTOE			RTHI			RKNE			RTIB			RANK			RHEE			RTOE			*39			*40			*41			*42		
		X1	Y1	Z1	X2	Y2	Z2	X3	Y3	Z3	X4	Y4	Z4	X5	Y5	Z5	X6	Y6	Z6	X7	Y7	Z7	X8	Y8	Z8	X9	Y9	Z9	X10	Y10	Z10	X11	Y11	Z11	X12	Y12	Z12	X13	Y13	Z13	X14	Y14	Z14	X15	Y15	Z15	X16	Y16	Z16	X17	Y17	Z17	X18	Y18	Z18	X19	Y19	Z19	X20	Y20	Z20	X21	Y21	Z21	X22	Y22	Z22	X23	Y23	Z23	X24	Y24	Z24	X25	Y25	Z25	X26	Y26	Z26	X27	Y27	Z27	X28	Y28	Z28	X29	Y29	Z29	X30	Y30	Z30	X31	Y31	Z31	X32	Y32	Z32	X33	Y33	Z33	X34	Y34	Z34	X35	Y35	Z35	X36	Y36	Z36	X37	Y37	Z37	X38	Y38	Z38	X39	Y39	Z39	X40	Y40	Z40	X41	Y41	Z41	X42	Y42	Z42	X43	Y43	Z43
																																																																																																																																		
39	0.38	-1121.37415	1686.08667	-1497.16821	-1100.09644	1700.70251	-1386.54382	-1223.15417	1616.78259	-1476.06958	-1204.73877	1630.65894	-1358.85071	-1228.56482	1440.67517	-1431.19275	-1256.78687	1148.50134	-1416.01807	-1084.07495	1378.1051	-1431.3783	-1034.66125	1223.21228	-1432.93115	-1276.09534	1247.37061	-1349.18982	-1146.00024	1399.84082	-1592.20618	-1157.60876	1213.70276	-1675.62109	-1148.99585	1062.89795	-1679.17151	-1089.9646	965.09778	-1703.12817	-991.25165	868.00317	-1680.89844	-1042.91528	852.43518	-1708.38013	-979.96289	796.21008	-1717.07336	-1144.98718	1406.50574	-1279.07141	-1204.05212	1207.96228	-1175.41895	-1206.01404	1083.13623	-1172.68579	-1182.29102	965.78064	-1139.41748	-1103.96973	847.23401	-1155.276	-1149.52454	849.56378	-1116.73718	-1113.23193	770.98779	-1118.35315	-1088.40906	941.86359	-1522.63025	-1083.23279	948.04108	-1306.5437	-1272.80371	954.59229	-1464.89575	-1267.02234	956.79779	-1319.35938	-1112.724	608.08618	-1566.54468	-1117.01685	474.38504	-1543.84619	-1170.57849	290.44003	-1546.78296	-1197.53467	74.78403	-1484.7959	-1240.49585	45.79641	-1429.37646	-1049.04236	38.99091	-1490.55359	-1062.12219	621.28601	-1239.35034	-1031.37671	465.46503	-1258.7738	-1154.15186	337.94717	-1256.56177	-1270.18848	167.59082	-1302.52234	-1324.87842	150.98502	-1358.63904	-1173.8136	65.63929	-1288.61731	-1121.49463	1729.60657	-1408.36523	-1973.11755	1023.50647	3101.91138	-2012.57544	1022.02252	3140.729	NaN	NaN	NaN
40	0.39	-1114.7605	1686.17346	-1498.02307	-1093.57251	1700.61279	-1387.41919	-1216.73145	1617.099	-1477.1571	-1198.41187	1630.86169	-1359.85083	-1222.41077	1440.84534	-1432.38147	-1251.01807	1148.72058	-1417.15112	-1078.05042	1378.08801	-1432.26929	-1028.62622	1223.25842	-1433.95508	-1270.17615	1247.52563	-1350.48218	-1139.76611	1399.9425	-1593.26318	-1150.94458	1213.93591	-1676.83667	-1141.15454	1063.06311	-1680.40051	-1080.48792	965.99237	-1704.2583	-980.25079	870.66333	-1682.37061	-1031.78223	854.18604	-1709.56152	-968.10889	799.16235	-1718.62061	-1138.97241	1406.45496	-1279.97571	-1198.81458	1208.19775	-1176.50635	-1201.19287	1083.38916	-1173.89795	-1177.98145	965.89191	-1140.68018	-1100.09656	847.19189	-1156.55127	-1145.82654	849.59094	-1118.12146	-1109.80042	770.6535	-1119.76758	-1083.0791	941.79834	-1523.57043	-1077.35583	948.42352	-1307.47241	-1267.32324	954.53418	-1465.40625	-1261.63416	956.85626	-1320.05884	-1109.96594	607.76227	-1567.05249	-1115.16992	474.03342	-1544.39001	-1169.4032	290.47079	-1547.18896	-1197.5094	74.90515	-1484.8562	-1240.49438	45.85347	-1429.3009	-1049.00427	38.94841	-1490.68518	-1053.21448	622.4223	-1240.16809	-1020.88385	467.0705	-1260.16748	-1139.34851	335.2908	-1257.17566	-1249.55225	161.03542	-1302.89148	-1303.72058	142.04486	-1358.8313	-1149.23291	63.49829	-1288.43823	-1114.89111	1729.70886	-1409.28198	-1973.13062	1023.39783	3101.99414	-2012.53015	1022.00726	3140.69409	NaN	NaN	NaN
41	0.4	-1108.12598	1686.17261	-1498.85999	-1087.06506	1700.49731	-1388.20935	-1210.28833	1617.36084	-1478.18408	-1192.0896	1630.99084	-1360.84924	-1216.22693	1440.91455	-1433.38782	-1245.25232	1148.89392	-1418.19385	-1071.93933	1377.99768	-1433.12988	-1022.67523	1223.15588	-1434.80383	-1264.24219	1247.61707	-1351.7373	-1133.47693	1399.98853	-1594.20886	-1144.18958	1214.05908	-1677.83191	-1133.33728	1063.1825	-1681.54285	-1071.40015	967.0434	-1705.6449	-969.34576	873.33685	-1683.67798	-1020.68799	855.82111	-1710.37634	-956.14246	801.92596	-1719.79529	-1132.99963	1406.45435	-1281.00989	-1193.34143	1208.32764	-1177.50769	-1196.30017	1083.5592	-1175.07153	-1173.51563	965.90485	-1141.94531	-1096.13599	847.03088	-1157.94653	-1141.84314	849.52325	-1119.42761	-1106.09802	770.513	-1121.45007	-1077.74475	941.59088	-1524.40149	-1071.42224	948.92065	-1308.52698	-1261.84448	954.45496	-1465.89563	-1255.69104	956.78394	-1320.53308	-1107.03345	607.29688	-1567.36096	-1113.20398	473.57367	-1544.72864	-1168.2356	290.31598	-1547.29773	-1197.25415	74.72525	-1484.67737	-1240.47961	46.04681	-1429.26184	-1048.86023	38.74329	-1490.67175	-1044.71777	623.61786	-1240.87048	-1010.62482	468.24487	-1261.00342	-1124.46887	332.41187	-1257.83435	-1228.58679	154.29895	-1303.09033	-1282.26038	133.05304	-1358.80078	-1124.1936	61.50735	-1288.55359	-1108.24951	1729.69482	-1410.11646	-1973.18384	1023.33301	3101.87915	-2012.5824	1021.95959	3140.72827	NaN	NaN	NaN
42	0.41	-1101.52039	1686.1355	-1499.67334	-1080.65149	1700.297	-1388.92346	-1203.78247	1617.49109	-1479.07788	-1185.7417	1631.0957	-1361.77991	-1210.00256	1440.9502	-1434.42065	-1239.41565	1148.98938	-1419.21667	-1065.81458	1377.95056	-1434.09229	-1016.73193	1222.95007	-1435.70386	-1258.32263	1247.59265	-1352.91541	-1127.1958	1400.01855	-1595.09595	-1137.37183	1214.21021	-1678.83533	-1125.51013	1063.21838	-1682.65771	-1062.16687	967.81647	-1706.62231	-958.54639	875.9765	-1684.82605	-1009.66534	857.58295	-1711.33911	-944.1734	804.66187	-1720.79785	-1127.00928	1406.43579	-1281.87061	-1187.7998	1208.42871	-1178.48474	-1191.35681	1083.68896	-1176.11853	-1168.98792	965.94293	-1143.14636	-1092.04138	846.67596	-1159.27747	-1137.67395	849.34222	-1120.71667	-1102.25818	770.26794	-1122.83606	-1072.40503	941.38263	-1525.26965	-1065.47559	949.11938	-1309.54102	-1256.32373	954.26953	-1466.28442	-1249.39563	956.71307	-1320.72473	-1103.97546	606.95142	-1567.77222	-1111.19397	473.19553	-1545.1626	-1167.17053	290.05493	-1547.26978	-1197.13196	74.97858	-1484.68787	-1240.37598	46.22512	-1429.11047	-1048.63293	38.76973	-1490.64929	-1036.7865	624.51935	-1241.70593	-1000.83459	469.68018	-1262.22314	-1109.68726	329.51065	-1258.10413	-1207.19543	147.65344	-1303.15173	-1260.32166	124.02666	-1358.62781	-1098.06873	59.69935	-1288.42139	-1101.65479	1729.60852	-1410.86877	-1973.23035	1023.43402	3101.94946	-2012.56921	1022.08185	3140.69165	NaN	NaN	NaN
